<svg width="800" height="354.186" viewBox="0 0 800 354.186" xmlns="http://www.w3.org/2000/svg" xmlns:xlink="http://www.w3.org/1999/xlink" id="Layer_2" xml:space="preserve" overflow="hidden"><defs id="defs87"></defs><circle cx="579.219" cy="177.413" r="86.775" id="circle3" stroke="#000000" stroke-width="2" stroke-miterlimit="10" fill="none"/><circle cx="578.667" cy="176.86" r="148.124" id="circle5" stroke="#000000" stroke-width="2" stroke-miterlimit="10" fill="none"/><ellipse cx="207.803" cy="177.413" rx="77.378" ry="86.222" id="ellipse7" stroke="#000000" stroke-width="2" stroke-miterlimit="10" fill="none"/><ellipse cx="205.592" cy="176.462" rx="133.754" ry="146.578" id="ellipse9" stroke="#000000" stroke-width="2" stroke-miterlimit="10" fill="none"/><circle cx="206.145" cy="90.086" r="4.974" id="circle11"/><circle cx="207.25" cy="263.635" r="4.974" id="circle13"/><circle cx="334.925" cy="135.407" r="4.974" id="circle15"/><circle cx="538.319" cy="33.71" r="4.974" id="circle17"/><circle cx="620.12" cy="34.263" r="4.974" id="circle19"/><circle cx="580.325" cy="91.191" r="4.974" id="circle21"/><circle cx="580.325" cy="263.635" r="4.974" id="circle23"/><circle cx="721.264" cy="134.855" r="4.974" id="circle25"/><circle cx="717.949" cy="227.156" r="4.974" id="circle27"/><circle cx="622.883" cy="318.904" r="4.974" id="circle29"/><circle cx="513.448" cy="308.956" r="4.974" id="circle31"/><circle cx="443.254" cy="237.657" r="4.974" id="circle33"/><g id="g35"><g id="g37"><path d="M339.899 129.88C339.899 129.88 352.61 97.823 358.691 96.717 364.771 95.612 370.298 128.221 377.483 127.669 384.668 127.116 407.329 86.216 416.725 86.216 421.365 86.216 427.216 91.74 431.953 97.334" id="path39" stroke="#E23D26" stroke-width="2" stroke-miterlimit="10" fill="none"/><g id="g41"><path d="M440.535 108.845 438.017 89.062 422.144 101.135Z" id="polygon43" fill="#E23D26"/></g></g></g><g id="g45"><circle cx="213.797" cy="189.035" r="9.982" id="circle47" stroke="#4795D1" stroke-width="2" stroke-miterlimit="10" fill="#4064AF"/><circle cx="224.729" cy="175.25" r="9.982" id="circle49" stroke="#A32326" stroke-width="2" stroke-miterlimit="10" fill="#E23D26"/><circle cx="209.361" cy="184.44" r="9.982" id="circle51" stroke="#A32326" stroke-width="2" stroke-miterlimit="10" fill="#E23D26"/><circle cx="210.153" cy="172.716" r="9.982" id="circle53" stroke="#A32326" stroke-width="2" stroke-miterlimit="10" fill="#E23D26"/><circle cx="221.244" cy="183.648" r="9.982" id="circle55" stroke="#4795D1" stroke-width="2" stroke-miterlimit="10" fill="#4064AF"/><circle cx="220.135" cy="172.398" r="9.982" id="circle57" stroke="#4795D1" stroke-width="2" stroke-miterlimit="10" fill="#4064AF"/></g><g id="g59"><ellipse cx="574.172" cy="157.425" rx="9.507" ry="8.398" id="ellipse61" stroke="#4795D1" stroke-width="2" stroke-miterlimit="10" fill="#4064AF"/><circle cx="580.985" cy="196.877" r="9.982" id="circle63" stroke="#4795D1" stroke-width="2" stroke-miterlimit="10" fill="#4064AF"/><ellipse cx="590.095" cy="161.544" rx="10.061" ry="8.873" id="ellipse65" stroke="#4795D1" stroke-width="2" stroke-miterlimit="10" fill="#4064AF"/><circle cx="563.794" cy="165.109" r="9.982" id="circle67" stroke="#A32326" stroke-width="2" stroke-miterlimit="10" fill="#E23D26"/><circle cx="598.493" cy="170.655" r="9.981" id="circle69" stroke="#A32326" stroke-width="2" stroke-miterlimit="10" fill="#E23D26"/><ellipse cx="593.106" cy="191.134" rx="9.982" ry="10.417" id="ellipse71" stroke="#A32326" stroke-width="2" stroke-miterlimit="10" fill="#E23D26"/><circle cx="565.854" cy="189.51" r="9.981" id="circle73" stroke="#A32326" stroke-width="2" stroke-miterlimit="10" fill="#E23D26"/><ellipse cx="572.826" cy="188.955" rx="10.141" ry="10.22" id="ellipse75" stroke="#A32326" stroke-width="2" stroke-miterlimit="10" fill="#E23D26"/><ellipse cx="581.024" cy="173.942" rx="10.972" ry="11.369" id="ellipse77" stroke="#A32326" stroke-width="2" stroke-miterlimit="10" fill="#E23D26"/><ellipse cx="596.274" cy="178.418" rx="10.853" ry="11.171" id="ellipse79" stroke="#4795D1" stroke-width="2" stroke-miterlimit="10" fill="#4064AF"/><circle cx="561.972" cy="176.121" r="11.249" id="circle81" stroke="#4795D1" stroke-width="2" stroke-miterlimit="10" fill="#4064AF"/><circle cx="574.569" cy="167.487" r="11.25" id="circle83" stroke="#A32326" stroke-width="2" stroke-miterlimit="10" fill="#E23D26"/></g></svg>