<svg width="400" height="397" xmlns="http://www.w3.org/2000/svg" xmlns:xlink="http://www.w3.org/1999/xlink" id="svg2816" overflow="hidden"><defs id="defs2820"><linearGradient id="linearGradient4011"><stop offset="0" stop-color="#FFFFFF"/><stop offset="1" stop-color="#353536"/></linearGradient><linearGradient id="linearGradient4005"><stop offset="0" stop-color="#FF0000"/><stop offset="1" stop-color="#450000"/></linearGradient><linearGradient id="linearGradient3999"><stop offset="0" stop-color="#FF0000"/><stop offset="1" stop-color="#390000"/></linearGradient><linearGradient id="linearGradient3991"><stop offset="0" stop-color="#FFFFFF"/><stop offset="1" stop-color="#555355"/></linearGradient><linearGradient id="linearGradient3707"><stop offset="0" stop-color="#FFFFFF"/><stop offset="1" stop-color="#555356"/></linearGradient><linearGradient id="linearGradient3602"><stop offset="0" stop-color="#FF0000"/><stop offset="1" stop-color="#6A0000"/></linearGradient><radialGradient cx="21.487" cy="76.5802" r="38.6907" fx="21.487" fy="76.5802" gradientUnits="userSpaceOnUse" xlink:href="#linearGradient3602" id="radialGradient3608" gradientTransform="matrix(0.724893 0.947062 -1.51181 1.15715 296.119 -62.0668)"></radialGradient><linearGradient id="linearGradient3602-7"><stop offset="0" stop-color="#FF0000"/><stop offset="1" stop-color="#6A0000"/></linearGradient><radialGradient cx="21.487" cy="76.5802" r="38.6907" fx="21.487" fy="76.5802" gradientUnits="userSpaceOnUse" xlink:href="#linearGradient3602-7" id="radialGradient3627" gradientTransform="matrix(0.724893 0.947062 -1.51181 1.15715 294.857 104.892)"></radialGradient><radialGradient cx="21.487" cy="76.5802" r="38.6907" fx="21.487" fy="76.5802" gradientUnits="userSpaceOnUse" xlink:href="#linearGradient4005" id="radialGradient3627-5" gradientTransform="matrix(0.724893 0.947062 -1.51181 1.15715 423.966 210.871)"></radialGradient><radialGradient cx="21.487" cy="76.5802" r="38.6907" fx="21.487" fy="76.5802" gradientUnits="userSpaceOnUse" xlink:href="#linearGradient3999" id="radialGradient3627-2" gradientTransform="matrix(0.724893 0.947062 -1.51181 1.15715 214.953 238.627)"></radialGradient><linearGradient id="linearGradient3602-2"><stop offset="0" stop-color="#FF0000"/><stop offset="1" stop-color="#6A0000"/></linearGradient><radialGradient cx="21.487" cy="76.5802" r="38.6907" fx="21.487" fy="76.5802" gradientUnits="userSpaceOnUse" xlink:href="#linearGradient3602-2" id="radialGradient3627-21" gradientTransform="matrix(0.472402 0.617187 -0.985222 0.754099 92.5303 172.71)"></radialGradient><radialGradient cx="-328.871" cy="138.782" r="26.0742" fx="-328.871" fy="138.782" gradientUnits="userSpaceOnUse" xlink:href="#linearGradient3707" id="radialGradient3721" gradientTransform="matrix(1.84801 0.49455 -0.387095 1.44648 895.249 -9.70906)"></radialGradient><linearGradient id="linearGradient3707-5"><stop offset="0" stop-color="#FFFFFF"/><stop offset="1" stop-color="#555356"/></linearGradient><radialGradient cx="-321.1" cy="131.558" r="26.0742" fx="-321.1" fy="131.558" gradientUnits="userSpaceOnUse" xlink:href="#linearGradient3707-5" id="radialGradient3740" gradientTransform="matrix(0.338169 -1.4317 1.12063 0.264692 142.796 -474.979)"></radialGradient><linearGradient id="linearGradient3707-2"><stop offset="0" stop-color="#FFFFFF"/><stop offset="1" stop-color="#555356"/></linearGradient><radialGradient cx="-325.511" cy="148.005" r="26.0742" fx="-325.511" fy="148.005" gradientUnits="userSpaceOnUse" xlink:href="#linearGradient3707-2" id="radialGradient3778" gradientTransform="matrix(0.0384372 1.91266 -1.49708 0.0300857 464.925 860.216)"></radialGradient><linearGradient id="linearGradient3707-1"><stop offset="0" stop-color="#FFFFFF"/><stop offset="1" stop-color="#555356"/></linearGradient><radialGradient cx="-326.836" cy="132.158" r="26.0742" fx="-326.836" fy="132.158" gradientUnits="userSpaceOnUse" xlink:href="#linearGradient3707-1" id="radialGradient3816" gradientTransform="matrix(1.27053 -1.4302 1.11945 0.994477 457.938 -412.778)"></radialGradient><radialGradient cx="-327.548" cy="145.683" r="26.0742" fx="-327.548" fy="145.683" gradientUnits="userSpaceOnUse" xlink:href="#linearGradient4011" id="radialGradient3854" gradientTransform="matrix(-0.578474 1.72857 -1.41998 -0.475202 366.764 964.079)"></radialGradient><linearGradient id="linearGradient3707-11-2"><stop offset="0" stop-color="#FFFFFF"/><stop offset="1" stop-color="#555356"/></linearGradient><radialGradient cx="-325.753" cy="149.521" r="26.0742" fx="-325.753" fy="149.521" gradientUnits="userSpaceOnUse" xlink:href="#linearGradient3707-11-2" id="radialGradient3892" gradientTransform="matrix(-1.7951 0.661332 -0.51764 -1.40506 -167.269 768.286)"></radialGradient><linearGradient id="linearGradient3707-1-1"><stop offset="0" stop-color="#FFFFFF"/><stop offset="1" stop-color="#555356"/></linearGradient><radialGradient cx="-326.836" cy="132.158" r="26.0742" fx="-326.836" fy="132.158" gradientUnits="userSpaceOnUse" xlink:href="#linearGradient3707-1-1" id="radialGradient3930" gradientTransform="matrix(1.68111 -0.913008 0.714633 1.31585 590.347 -151.525)"></radialGradient><radialGradient cx="-262.874" cy="362.666" r="14.2987" fx="-262.874" fy="362.666" gradientUnits="userSpaceOnUse" xlink:href="#linearGradient3991" id="radialGradient3997" gradientTransform="matrix(2.73049 0.718551 -0.535777 2.03597 1030.9 -194.804)"></radialGradient><linearGradient id="linearGradient3707-5-2"><stop offset="0" stop-color="#FFFFFF"/><stop offset="1" stop-color="#555356"/></linearGradient><radialGradient cx="-319.789" cy="143.931" r="26.0742" fx="-319.789" fy="143.931" gradientUnits="userSpaceOnUse" xlink:href="#linearGradient3707-5-2" id="radialGradient4034" gradientTransform="matrix(-0.943219 0.828044 -0.521231 -0.59373 -195.714 620.533)"></radialGradient><linearGradient id="linearGradient3707-5-0"><stop offset="0" stop-color="#FFFFFF"/><stop offset="1" stop-color="#555356"/></linearGradient><radialGradient cx="-329.385" cy="145.778" r="26.0742" fx="-329.385" fy="145.778" gradientUnits="userSpaceOnUse" xlink:href="#linearGradient3707-5-0" id="radialGradient4072" gradientTransform="matrix(0.59048 0.474145 -0.77789 0.96875 356.014 255.141)"></radialGradient></defs><path d="M190.162 4.68607C201.231 4.35905 210.469 13.067 210.796 24.1358 211.146 28.2956 204.799 35.3964 199.293 38.9253 194.384 42.072 188.321 44.855 183.802 43.5403 176.362 40.7879 170.961 33.7364 170.712 25.32 170.385 14.2512 179.093 5.01308 190.162 4.68607Z" id="path3705-1" fill="url(#radialGradient3740)"/><path d="M248.91 56.5703C248.91 77.2418 232.152 93.9993 211.481 93.9993 190.809 93.9993 174.052 77.2418 174.052 56.5703 174.052 35.8988 190.809 19.1413 211.481 19.1413 232.152 19.1413 248.91 35.8988 248.91 56.5703Z" id="path2828" fill="url(#radialGradient3608)"/><path d="M247.648 223.529C247.648 244.2 230.891 260.958 210.219 260.958 189.548 260.958 172.79 244.2 172.79 223.529 172.79 202.857 189.548 186.1 210.219 186.1 230.891 186.1 247.648 202.857 247.648 223.529Z" id="path2828-9" fill="url(#radialGradient3627)"/><path d="M318.785 372.523C310.483 360.757 313.291 344.488 325.057 336.186 329.316 332.82 341.926 331.559 349.705 334.994 356.641 338.057 363.659 345.677 365.478 351.521 367.836 361.564 364.069 372.483 355.122 378.796 343.355 387.098 327.087 384.29 318.785 372.523Z" id="path3705-7-9" fill="url(#radialGradient3892)"/><path d="M376.757 329.508C376.757 350.179 360 366.937 339.328 366.937 318.657 366.937 301.899 350.179 301.899 329.508 301.899 308.836 318.657 292.079 339.328 292.079 360 292.079 376.757 308.836 376.757 329.508Z" id="path2828-5" fill="url(#radialGradient3627-5)"/><path d="M166.369 310.123C176.28 320.571 174.91 337.184 165.897 345.601 161.426 347.265 153.568 347.114 144.694 345.483 137.236 344.112 129.995 341.529 123.474 336.841 119.694 327.243 121.564 316.686 129.508 309.151 139.956 299.24 156.459 299.676 166.369 310.123Z" id="path3705-3-6" fill="url(#radialGradient3930)"/><path d="M167.744 357.264C167.744 377.936 150.986 394.693 130.315 394.693 109.643 394.693 92.8855 377.936 92.8855 357.264 92.8855 336.593 109.643 319.835 130.315 319.835 150.986 319.835 167.744 336.593 167.744 357.264Z" id="path2828-7" fill="url(#radialGradient3627-2)"/><path d="M25.6168 284.036C18.2601 278.108 17.1019 267.339 23.0299 259.982 25.1106 257.092 33.1639 256.009 38.6902 256.776 43.618 257.459 49.0922 259.018 51.2925 262.377 54.5888 268.289 54.1783 275.856 49.6708 281.449 43.7429 288.806 32.9735 289.964 25.6168 284.036Z" id="path3705-1-6" fill="url(#radialGradient4034)"/><path d="M61.7647 250.024C61.7647 263.495 50.8441 274.416 37.3728 274.416 23.9015 274.416 12.9808 263.495 12.9808 250.024 12.9808 236.552 23.9015 225.632 37.3728 225.632 50.8441 225.632 61.7647 236.552 61.7647 250.024Z" id="path2828-6" fill="url(#radialGradient3627-21)"/><path d="M269.937 33.44C269.937 47.8403 258.264 59.5141 243.863 59.5141 238.443 59.8089 229.456 51.2862 225.081 43.9945 221.179 37.4925 217.794 29.5045 219.677 23.6805 223.54 14.1152 232.914 7.36582 243.863 7.36582 258.264 7.36582 269.937 19.0396 269.937 33.44Z" id="path3705" fill="url(#radialGradient3721)"/><path d="M249.718 271.52C235.885 275.522 221.427 267.551 217.426 253.718 215.847 249.855 221.116 239.064 226.905 232.835 232.067 227.28 240.272 220.547 245.128 220.527 255.39 221.581 264.478 228.709 267.52 239.228 271.522 253.061 263.552 267.519 249.718 271.52Z" id="path3705-4" fill="url(#radialGradient3778)"/><path d="M216.18 165.521C229.052 171.977 233.413 188.066 227.798 199.046 224.16 202.131 216.719 204.66 207.819 206.144 200.339 207.39 192.651 207.423 184.925 205.232 178.106 197.49 176.275 186.927 181.184 177.139 187.64 164.267 203.308 159.065 216.18 165.521Z" id="path3705-3" fill="url(#radialGradient3816)"/><path d="M371.29 358.25C358.551 364.964 342.78 360.08 336.066 347.34 333.278 342.683 333.654 330.016 338.065 322.745 341.997 316.262 350.46 310.287 356.489 309.237 366.753 308.194 377.094 313.34 382.199 323.026 388.913 335.765 384.029 351.536 371.29 358.25Z" id="path3705-7" fill="url(#radialGradient3854)"/><path d="M157.861 359.899C157.861 376.525 144.674 390.002 128.407 390.002 112.141 390.002 98.9542 376.525 98.9542 359.899 98.9542 343.274 112.141 329.796 128.407 329.796 144.674 329.796 157.861 343.274 157.861 359.899Z" id="path3989" fill="url(#radialGradient3997)"/><path d="M74.4572 245.983C71.256 255.119 61.2548 259.93 52.119 256.728 48.6146 255.71 44.8082 248.306 43.6533 242.707 42.6234 237.715 42.2519 231.895 44.7409 228.618 49.3183 223.409 56.7652 221.211 63.7118 223.645 72.8476 226.846 77.6585 236.847 74.4572 245.983Z" id="path3705-1-0" fill="url(#radialGradient4072)"/><path d="M99.6903 234.098 150.876 227.802" id="path4195" stroke="#000000" stroke-width="3.8" stroke-dasharray="3.8 7.6" fill="none"/><path d="M207.035 141.711 207.902 109.885" id="path4195-1" stroke="#000000" stroke-width="3.8" stroke-dasharray="3.8 7.6" fill="none"/><path d="M163.444 289.053 178.091 265.709" id="path4195-5" stroke="#000000" stroke-width="3.8" stroke-dasharray="3.8 7.6" fill="none"/><path d="M274.02 277.978 294.74 296.704" id="path4195-8" stroke="#000000" stroke-width="3.8" stroke-dasharray="3.8 7.6" fill="none"/><path d="M216.489 124.605 323.543 148.395 292.616 276.861" id="path4277" stroke="#000000" stroke-width="2" fill="none"/><g id="text4279" font-family="Times New Roman" font-weight="400" font-size="18" transform="translate(396.103 -3.56849)"><text id="text4651" font-family="Sans" font-size="90" xml:space="preserve" x="-68.1769" y="162.071"><tspan font-size="37.3333" x="-68.1769" y="162.071">1</tspan></text></g><path d="M204.31 194.361 208.476 215.549" id="path4348" stroke="#000000" fill="none"/><path d="M216.891 230.258 235.185 243.505" id="path4350" stroke="#000000" fill="none"/><text id="text929" font-family="Sans" font-weight="400" font-size="90" xml:space="preserve" x="201.267" y="109.356"><tspan font-size="13.3333" x="201.267" y="109.356">δ−</tspan></text><text id="text929-3" font-family="Sans" font-weight="400" font-size="90" xml:space="preserve" x="152.384" y="231.728"><tspan font-size="13.3333" x="152.384" y="231.728">δ−</tspan></text><text id="text929-7" font-family="Sans" font-weight="400" font-size="90" xml:space="preserve" x="175.713" y="263.158"><tspan font-size="13.3333" x="175.713" y="263.158">δ−</tspan></text><text id="text929-35" font-family="Sans" font-weight="400" font-size="90" xml:space="preserve" x="291.13" y="309.268"><tspan font-size="13.3333" x="291.13" y="309.268">δ−</tspan></text><text id="text929-9" font-family="Sans" font-weight="400" font-size="90" xml:space="preserve" x="199.676" y="158.685"><tspan font-size="13.3333" x="199.676" y="158.685">δ+</tspan></text><text id="text929-9-2" font-family="Sans" font-weight="400" font-size="90" xml:space="preserve" x="76.8687" y="240.565"><tspan font-size="13.3333" x="76.8687" y="240.565">δ+</tspan></text><text id="text929-9-0" font-family="Sans" font-weight="400" font-size="90" xml:space="preserve" x="152.46" y="301.482"><tspan font-size="13.3333" x="152.46" y="301.482">δ+</tspan></text><text id="text929-9-3" font-family="Sans" font-weight="400" font-size="90" xml:space="preserve" x="260.039" y="275.574"><tspan font-size="13.3333" x="260.039" y="275.574">δ+</tspan></text><text id="text929-9-36" font-family="Sans" font-weight="400" font-size="90" xml:space="preserve" x="204.145" y="193.947"><tspan font-size="18.6667" text-anchor="middle" x="204.145" y="193.947">H</tspan></text><text id="text929-9-36-8" font-family="Sans" font-weight="400" font-size="90" xml:space="preserve" x="242.515" y="253.184"><tspan font-size="18.6667" text-anchor="middle" x="242.515" y="253.184">H</tspan></text><text id="text929-9-36-0" font-family="Sans" font-weight="400" font-size="90" xml:space="preserve" x="210.576" y="231.087"><tspan font-size="18.6667" text-anchor="middle" x="210.576" y="231.087">O</tspan></text></svg>